<mxfile host="app.diagrams.net" modified="2021-10-15T08:48:44.781Z" agent="5.0 (Windows NT 10.0; Win64; x64) AppleWebKit/537.36 (KHTML, like Gecko) Chrome/93.0.4577.82 Safari/537.36" etag="Cowx1Ai-reTY7tH2Xm5r" version="15.4.3" type="github" pages="6">
  <diagram name="Connection" id="DMz5YVnqWzDvg8ptLJZD">
    <mxGraphModel dx="1612" dy="980" grid="1" gridSize="10" guides="1" tooltips="1" connect="1" arrows="1" fold="1" page="1" pageScale="1" pageWidth="827" pageHeight="1169" background="#DAD2D8" math="0" shadow="0">
      <root>
        <mxCell id="T7-tP2VTI22xgJnf27IW-0" />
        <mxCell id="T7-tP2VTI22xgJnf27IW-1" parent="T7-tP2VTI22xgJnf27IW-0" />
        <mxCell id="T7-tP2VTI22xgJnf27IW-2" value="" style="whiteSpace=wrap;html=1;absoluteArcSize=1;arcSize=132;strokeWidth=2;fillColor=#FAE5C7;strokeColor=#0F8B8D;fontColor=#143642;glass=0;shadow=0;rounded=1;" parent="T7-tP2VTI22xgJnf27IW-1" vertex="1">
          <mxGeometry x="204" y="100" width="420" height="930" as="geometry" />
        </mxCell>
        <mxCell id="T7-tP2VTI22xgJnf27IW-16" value="Site web - Learn@Home&lt;br&gt;Page de connexion" style="text;html=1;strokeColor=none;fillColor=none;align=center;verticalAlign=middle;whiteSpace=wrap;fontColor=#143642;rounded=1;" parent="T7-tP2VTI22xgJnf27IW-1" vertex="1">
          <mxGeometry x="319" y="120" width="190" height="20" as="geometry" />
        </mxCell>
        <mxCell id="T7-tP2VTI22xgJnf27IW-18" value="s&#39;identifier" style="ellipse;whiteSpace=wrap;html=1;fillColor=#FAE5C7;strokeColor=#0F8B8D;fontColor=#143642;rounded=1;strokeWidth=3;" parent="T7-tP2VTI22xgJnf27IW-1" vertex="1">
          <mxGeometry x="330" y="540" width="120" height="80" as="geometry" />
        </mxCell>
        <mxCell id="T7-tP2VTI22xgJnf27IW-37" value="récupérer d&#39;un MDP" style="ellipse;whiteSpace=wrap;html=1;fillColor=#FAE5C7;strokeColor=#0F8B8D;fontColor=#143642;rounded=1;strokeWidth=3;" parent="T7-tP2VTI22xgJnf27IW-1" vertex="1">
          <mxGeometry x="327.75" y="860" width="120" height="80" as="geometry" />
        </mxCell>
        <mxCell id="T7-tP2VTI22xgJnf27IW-38" value="se créer un compte" style="ellipse;whiteSpace=wrap;html=1;fillColor=#FAE5C7;strokeColor=#0F8B8D;fontColor=#143642;rounded=1;strokeWidth=3;" parent="T7-tP2VTI22xgJnf27IW-1" vertex="1">
          <mxGeometry x="320" y="290" width="116.25" height="80" as="geometry" />
        </mxCell>
        <mxCell id="T7-tP2VTI22xgJnf27IW-58" value="" style="edgeStyle=orthogonalEdgeStyle;orthogonalLoop=1;jettySize=auto;html=1;endArrow=none;" parent="T7-tP2VTI22xgJnf27IW-1" edge="1">
          <mxGeometry relative="1" as="geometry">
            <mxPoint x="153.75" y="500" as="sourcePoint" />
            <mxPoint x="153.75" y="500" as="targetPoint" />
          </mxGeometry>
        </mxCell>
        <mxCell id="KV6Y_W814N-7eYazUsoV-1" style="edgeStyle=orthogonalEdgeStyle;rounded=0;orthogonalLoop=1;jettySize=auto;html=1;exitX=1;exitY=0.75;exitDx=0;exitDy=0;entryX=0;entryY=0.5;entryDx=0;entryDy=0;endArrow=none;endFill=0;strokeColor=#A8201A;" parent="T7-tP2VTI22xgJnf27IW-1" source="vIFXc8-yqB_IbpnFypGw-0" target="T7-tP2VTI22xgJnf27IW-38" edge="1">
          <mxGeometry relative="1" as="geometry">
            <Array as="points">
              <mxPoint x="290" y="587" />
              <mxPoint x="290" y="330" />
            </Array>
          </mxGeometry>
        </mxCell>
        <mxCell id="KV6Y_W814N-7eYazUsoV-2" style="edgeStyle=orthogonalEdgeStyle;rounded=0;orthogonalLoop=1;jettySize=auto;html=1;exitX=1;exitY=0.75;exitDx=0;exitDy=0;entryX=0;entryY=0.5;entryDx=0;entryDy=0;endArrow=none;endFill=0;strokeColor=#A8201A;" parent="T7-tP2VTI22xgJnf27IW-1" source="vIFXc8-yqB_IbpnFypGw-0" target="T7-tP2VTI22xgJnf27IW-18" edge="1">
          <mxGeometry relative="1" as="geometry">
            <Array as="points">
              <mxPoint x="330" y="587" />
            </Array>
          </mxGeometry>
        </mxCell>
        <mxCell id="KV6Y_W814N-7eYazUsoV-4" style="edgeStyle=orthogonalEdgeStyle;rounded=0;orthogonalLoop=1;jettySize=auto;html=1;exitX=1;exitY=0.75;exitDx=0;exitDy=0;entryX=0;entryY=0.5;entryDx=0;entryDy=0;endArrow=none;endFill=0;strokeColor=#A8201A;" parent="T7-tP2VTI22xgJnf27IW-1" source="vIFXc8-yqB_IbpnFypGw-0" target="T7-tP2VTI22xgJnf27IW-37" edge="1">
          <mxGeometry relative="1" as="geometry">
            <Array as="points">
              <mxPoint x="290" y="588" />
              <mxPoint x="290" y="900" />
            </Array>
          </mxGeometry>
        </mxCell>
        <mxCell id="vIFXc8-yqB_IbpnFypGw-0" value="" style="shape=actor;whiteSpace=wrap;html=1;fontColor=#143642;strokeColor=#0F8B8D;fillColor=#FAE5C7;rounded=1;" parent="T7-tP2VTI22xgJnf27IW-1" vertex="1">
          <mxGeometry x="85.00000000000001" y="520" width="80" height="90" as="geometry" />
        </mxCell>
        <mxCell id="vIFXc8-yqB_IbpnFypGw-32" style="edgeStyle=orthogonalEdgeStyle;rounded=1;orthogonalLoop=1;jettySize=auto;html=1;exitX=0.5;exitY=1;exitDx=0;exitDy=0;fontColor=#143642;strokeColor=#A8201A;fillColor=#FAE5C7;" parent="T7-tP2VTI22xgJnf27IW-1" edge="1">
          <mxGeometry relative="1" as="geometry">
            <mxPoint x="582.75" y="680" as="sourcePoint" />
            <mxPoint x="582.75" y="680" as="targetPoint" />
          </mxGeometry>
        </mxCell>
        <mxCell id="vIFXc8-yqB_IbpnFypGw-39" value="Utilisateur" style="html=1;rounded=1;fontColor=#143642;strokeColor=none;fillColor=none;gradientColor=none;" parent="T7-tP2VTI22xgJnf27IW-1" vertex="1">
          <mxGeometry x="70" y="572.5" width="110" height="15" as="geometry" />
        </mxCell>
      </root>
    </mxGraphModel>
  </diagram>
  <diagram name="Tableau de bord" id="7vRNYoXHy6zofyaoq5lK">
    <mxGraphModel dx="806" dy="490" grid="1" gridSize="10" guides="1" tooltips="1" connect="1" arrows="1" fold="1" page="1" pageScale="1" pageWidth="827" pageHeight="1169" background="#DAD2D8" math="0" shadow="0">
      <root>
        <mxCell id="w_TpRDTI5Lo37MBMUi1Y-0" />
        <mxCell id="w_TpRDTI5Lo37MBMUi1Y-1" parent="w_TpRDTI5Lo37MBMUi1Y-0" />
        <mxCell id="w_TpRDTI5Lo37MBMUi1Y-2" value="" style="rounded=1;whiteSpace=wrap;html=1;absoluteArcSize=1;arcSize=122;strokeWidth=2;fillColor=#FAE5C7;strokeColor=#0F8B8D;fontColor=#143642;" parent="w_TpRDTI5Lo37MBMUi1Y-1" vertex="1">
          <mxGeometry x="148.5" y="40" width="530" height="1060" as="geometry" />
        </mxCell>
        <mxCell id="yxCfLfp56Zcecskfy1Bl-11" style="edgeStyle=orthogonalEdgeStyle;rounded=1;orthogonalLoop=1;jettySize=auto;html=1;exitX=0;exitY=0.3333333333333333;exitDx=0;exitDy=0;exitPerimeter=0;entryX=1;entryY=0.5;entryDx=0;entryDy=0;fontColor=#143642;endArrow=none;endFill=0;strokeColor=#A8201A;fillColor=#FAE5C7;" parent="w_TpRDTI5Lo37MBMUi1Y-1" source="w_TpRDTI5Lo37MBMUi1Y-15" target="iO--3B0f1CHQBaqf1IRb-0" edge="1">
          <mxGeometry relative="1" as="geometry" />
        </mxCell>
        <mxCell id="yxCfLfp56Zcecskfy1Bl-12" style="edgeStyle=orthogonalEdgeStyle;rounded=1;orthogonalLoop=1;jettySize=auto;html=1;exitX=0;exitY=0.3333333333333333;exitDx=0;exitDy=0;exitPerimeter=0;entryX=1;entryY=0.5;entryDx=0;entryDy=0;fontColor=#143642;endArrow=none;endFill=0;strokeColor=#A8201A;fillColor=#FAE5C7;" parent="w_TpRDTI5Lo37MBMUi1Y-1" source="w_TpRDTI5Lo37MBMUi1Y-15" target="yxCfLfp56Zcecskfy1Bl-2" edge="1">
          <mxGeometry relative="1" as="geometry" />
        </mxCell>
        <mxCell id="yxCfLfp56Zcecskfy1Bl-13" style="edgeStyle=orthogonalEdgeStyle;rounded=1;orthogonalLoop=1;jettySize=auto;html=1;exitX=0;exitY=0.3333333333333333;exitDx=0;exitDy=0;exitPerimeter=0;entryX=1;entryY=0.5;entryDx=0;entryDy=0;fontColor=#143642;endArrow=none;endFill=0;strokeColor=#A8201A;fillColor=#FAE5C7;" parent="w_TpRDTI5Lo37MBMUi1Y-1" source="w_TpRDTI5Lo37MBMUi1Y-15" target="yxCfLfp56Zcecskfy1Bl-3" edge="1">
          <mxGeometry relative="1" as="geometry">
            <Array as="points">
              <mxPoint x="600" y="520" />
              <mxPoint x="600" y="690" />
            </Array>
          </mxGeometry>
        </mxCell>
        <mxCell id="yxCfLfp56Zcecskfy1Bl-14" style="edgeStyle=orthogonalEdgeStyle;rounded=1;orthogonalLoop=1;jettySize=auto;html=1;exitX=0;exitY=0.3333333333333333;exitDx=0;exitDy=0;exitPerimeter=0;entryX=1;entryY=0.5;entryDx=0;entryDy=0;fontColor=#143642;endArrow=none;endFill=0;strokeColor=#A8201A;fillColor=#FAE5C7;" parent="w_TpRDTI5Lo37MBMUi1Y-1" source="w_TpRDTI5Lo37MBMUi1Y-15" target="yxCfLfp56Zcecskfy1Bl-4" edge="1">
          <mxGeometry relative="1" as="geometry">
            <Array as="points">
              <mxPoint x="600" y="520" />
              <mxPoint x="600" y="910" />
            </Array>
          </mxGeometry>
        </mxCell>
        <mxCell id="w_TpRDTI5Lo37MBMUi1Y-15" value="Etudiant" style="shape=umlActor;verticalLabelPosition=bottom;verticalAlign=top;html=1;fillColor=#FAE5C7;strokeColor=#0F8B8D;fontColor=#143642;" parent="w_TpRDTI5Lo37MBMUi1Y-1" vertex="1">
          <mxGeometry x="703" y="450" width="100" height="210" as="geometry" />
        </mxCell>
        <mxCell id="w_TpRDTI5Lo37MBMUi1Y-16" value="Site web Learn@Home&lt;br&gt;Page tableau de bord" style="text;html=1;strokeColor=none;fillColor=none;align=center;verticalAlign=middle;whiteSpace=wrap;rounded=0;fontColor=#143642;" parent="w_TpRDTI5Lo37MBMUi1Y-1" vertex="1">
          <mxGeometry x="260" y="60" width="330" height="20" as="geometry" />
        </mxCell>
        <mxCell id="yxCfLfp56Zcecskfy1Bl-6" style="edgeStyle=orthogonalEdgeStyle;rounded=1;orthogonalLoop=1;jettySize=auto;html=1;exitX=1;exitY=0.3333333333333333;exitDx=0;exitDy=0;exitPerimeter=0;entryX=0;entryY=0.5;entryDx=0;entryDy=0;fontColor=#143642;endArrow=none;endFill=0;strokeColor=#A8201A;fillColor=#FAE5C7;" parent="w_TpRDTI5Lo37MBMUi1Y-1" source="I6GStk3AaxL9Cx8yptqd-5" target="iO--3B0f1CHQBaqf1IRb-0" edge="1">
          <mxGeometry relative="1" as="geometry" />
        </mxCell>
        <mxCell id="yxCfLfp56Zcecskfy1Bl-7" style="edgeStyle=orthogonalEdgeStyle;rounded=1;orthogonalLoop=1;jettySize=auto;html=1;exitX=1;exitY=0.3333333333333333;exitDx=0;exitDy=0;exitPerimeter=0;entryX=0;entryY=0.5;entryDx=0;entryDy=0;fontColor=#143642;endArrow=none;endFill=0;strokeColor=#A8201A;fillColor=#FAE5C7;" parent="w_TpRDTI5Lo37MBMUi1Y-1" source="I6GStk3AaxL9Cx8yptqd-5" target="yxCfLfp56Zcecskfy1Bl-2" edge="1">
          <mxGeometry relative="1" as="geometry" />
        </mxCell>
        <mxCell id="yxCfLfp56Zcecskfy1Bl-8" style="edgeStyle=orthogonalEdgeStyle;rounded=1;orthogonalLoop=1;jettySize=auto;html=1;exitX=1;exitY=0.3333333333333333;exitDx=0;exitDy=0;exitPerimeter=0;entryX=0;entryY=0.5;entryDx=0;entryDy=0;fontColor=#143642;endArrow=none;endFill=0;strokeColor=#A8201A;fillColor=#FAE5C7;" parent="w_TpRDTI5Lo37MBMUi1Y-1" source="I6GStk3AaxL9Cx8yptqd-5" target="yxCfLfp56Zcecskfy1Bl-3" edge="1">
          <mxGeometry relative="1" as="geometry">
            <Array as="points">
              <mxPoint x="230" y="520" />
              <mxPoint x="230" y="690" />
            </Array>
          </mxGeometry>
        </mxCell>
        <mxCell id="I6GStk3AaxL9Cx8yptqd-5" value="Enseignant" style="shape=umlActor;verticalLabelPosition=bottom;verticalAlign=top;html=1;fillColor=#FAE5C7;strokeColor=#0F8B8D;fontColor=#143642;" parent="w_TpRDTI5Lo37MBMUi1Y-1" vertex="1">
          <mxGeometry x="23" y="450" width="100" height="210" as="geometry" />
        </mxCell>
        <mxCell id="iO--3B0f1CHQBaqf1IRb-0" value="consulter planning" style="ellipse;whiteSpace=wrap;html=1;fillColor=#FAE5C7;strokeColor=#0F8B8D;fontColor=#143642;strokeWidth=3;" parent="w_TpRDTI5Lo37MBMUi1Y-1" vertex="1">
          <mxGeometry x="345" y="130" width="157" height="100" as="geometry" />
        </mxCell>
        <mxCell id="yxCfLfp56Zcecskfy1Bl-2" value="voir les messages non lus&lt;br&gt;&amp;nbsp;du chat" style="ellipse;whiteSpace=wrap;html=1;fillColor=#FAE5C7;strokeColor=#0F8B8D;fontColor=#143642;strokeWidth=3;" parent="w_TpRDTI5Lo37MBMUi1Y-1" vertex="1">
          <mxGeometry x="346.5" y="370" width="157" height="100" as="geometry" />
        </mxCell>
        <mxCell id="yxCfLfp56Zcecskfy1Bl-3" value="consulter les contacts" style="ellipse;whiteSpace=wrap;html=1;fillColor=#FAE5C7;strokeColor=#0F8B8D;fontColor=#143642;strokeWidth=3;" parent="w_TpRDTI5Lo37MBMUi1Y-1" vertex="1">
          <mxGeometry x="335" y="640" width="157" height="100" as="geometry" />
        </mxCell>
        <mxCell id="yxCfLfp56Zcecskfy1Bl-4" value="consulter sa liste de tâches" style="ellipse;whiteSpace=wrap;html=1;fillColor=#FAE5C7;strokeColor=#0F8B8D;fontColor=#143642;strokeWidth=3;" parent="w_TpRDTI5Lo37MBMUi1Y-1" vertex="1">
          <mxGeometry x="345" y="860" width="157" height="100" as="geometry" />
        </mxCell>
      </root>
    </mxGraphModel>
  </diagram>
  <diagram name="chat" id="XCGGalB2610iWh_pyYio">
    <mxGraphModel dx="806" dy="490" grid="1" gridSize="10" guides="1" tooltips="1" connect="1" arrows="1" fold="1" page="1" pageScale="1" pageWidth="827" pageHeight="1169" background="#DAD2D8" math="0" shadow="0">
      <root>
        <mxCell id="jUjPNulSDmA4rLi2D7U4-0" />
        <mxCell id="jUjPNulSDmA4rLi2D7U4-1" parent="jUjPNulSDmA4rLi2D7U4-0" />
        <mxCell id="SbxhVR2RaEPP9orIsQn3-0" value="" style="rounded=1;whiteSpace=wrap;html=1;absoluteArcSize=1;arcSize=122;strokeWidth=2;fillColor=#FAE5C7;strokeColor=#0F8B8D;fontColor=#143642;" parent="jUjPNulSDmA4rLi2D7U4-1" vertex="1">
          <mxGeometry x="203" y="30" width="420" height="980" as="geometry" />
        </mxCell>
        <mxCell id="SbxhVR2RaEPP9orIsQn3-3" style="edgeStyle=orthogonalEdgeStyle;rounded=1;orthogonalLoop=1;jettySize=auto;html=1;exitX=1;exitY=0.3333333333333333;exitDx=0;exitDy=0;exitPerimeter=0;entryX=0;entryY=0.5;entryDx=0;entryDy=0;fontColor=#143642;endArrow=classic;endFill=1;strokeColor=#A8201A;fillColor=#FAE5C7;" parent="jUjPNulSDmA4rLi2D7U4-1" source="SbxhVR2RaEPP9orIsQn3-7" target="SbxhVR2RaEPP9orIsQn3-14" edge="1">
          <mxGeometry relative="1" as="geometry" />
        </mxCell>
        <mxCell id="SbxhVR2RaEPP9orIsQn3-4" style="edgeStyle=orthogonalEdgeStyle;rounded=1;orthogonalLoop=1;jettySize=auto;html=1;exitX=1;exitY=0.3333333333333333;exitDx=0;exitDy=0;exitPerimeter=0;entryX=0;entryY=0.5;entryDx=0;entryDy=0;fontColor=#143642;endArrow=classic;endFill=1;strokeColor=#A8201A;fillColor=#FAE5C7;" parent="jUjPNulSDmA4rLi2D7U4-1" source="SbxhVR2RaEPP9orIsQn3-7" target="SbxhVR2RaEPP9orIsQn3-13" edge="1">
          <mxGeometry relative="1" as="geometry" />
        </mxCell>
        <mxCell id="SbxhVR2RaEPP9orIsQn3-5" style="edgeStyle=orthogonalEdgeStyle;rounded=1;orthogonalLoop=1;jettySize=auto;html=1;exitX=1;exitY=0.3333333333333333;exitDx=0;exitDy=0;exitPerimeter=0;entryX=0;entryY=0.5;entryDx=0;entryDy=0;fontColor=#143642;endArrow=classic;endFill=1;strokeColor=#A8201A;fillColor=#FAE5C7;" parent="jUjPNulSDmA4rLi2D7U4-1" source="SbxhVR2RaEPP9orIsQn3-7" target="SbxhVR2RaEPP9orIsQn3-12" edge="1">
          <mxGeometry relative="1" as="geometry" />
        </mxCell>
        <mxCell id="SbxhVR2RaEPP9orIsQn3-6" style="edgeStyle=orthogonalEdgeStyle;rounded=1;orthogonalLoop=1;jettySize=auto;html=1;exitX=1;exitY=0.3333333333333333;exitDx=0;exitDy=0;exitPerimeter=0;entryX=0;entryY=0.5;entryDx=0;entryDy=0;fontColor=#143642;endArrow=classic;endFill=1;strokeColor=#A8201A;fillColor=#FAE5C7;" parent="jUjPNulSDmA4rLi2D7U4-1" source="SbxhVR2RaEPP9orIsQn3-7" target="SbxhVR2RaEPP9orIsQn3-11" edge="1">
          <mxGeometry relative="1" as="geometry" />
        </mxCell>
        <mxCell id="SbxhVR2RaEPP9orIsQn3-7" value="Bénévole" style="shape=umlActor;verticalLabelPosition=bottom;verticalAlign=top;html=1;fillColor=#FAE5C7;strokeColor=#0F8B8D;fontColor=#143642;" parent="jUjPNulSDmA4rLi2D7U4-1" vertex="1">
          <mxGeometry x="20" y="515" width="100" height="210" as="geometry" />
        </mxCell>
        <mxCell id="SbxhVR2RaEPP9orIsQn3-8" style="edgeStyle=orthogonalEdgeStyle;rounded=1;orthogonalLoop=1;jettySize=auto;html=1;exitX=0;exitY=0.3333333333333333;exitDx=0;exitDy=0;exitPerimeter=0;entryX=1;entryY=0.5;entryDx=0;entryDy=0;fontColor=#143642;endArrow=classic;endFill=1;strokeColor=#A8201A;fillColor=#FAE5C7;" parent="jUjPNulSDmA4rLi2D7U4-1" source="SbxhVR2RaEPP9orIsQn3-9" target="SbxhVR2RaEPP9orIsQn3-13" edge="1">
          <mxGeometry relative="1" as="geometry" />
        </mxCell>
        <mxCell id="SbxhVR2RaEPP9orIsQn3-27" style="edgeStyle=orthogonalEdgeStyle;rounded=1;orthogonalLoop=1;jettySize=auto;html=1;exitX=0;exitY=0.3333333333333333;exitDx=0;exitDy=0;exitPerimeter=0;entryX=1;entryY=0.5;entryDx=0;entryDy=0;fontColor=#143642;endArrow=classic;endFill=1;strokeColor=#A8201A;fillColor=#FAE5C7;" parent="jUjPNulSDmA4rLi2D7U4-1" source="SbxhVR2RaEPP9orIsQn3-9" target="SbxhVR2RaEPP9orIsQn3-11" edge="1">
          <mxGeometry relative="1" as="geometry" />
        </mxCell>
        <mxCell id="SbxhVR2RaEPP9orIsQn3-28" style="edgeStyle=orthogonalEdgeStyle;rounded=1;orthogonalLoop=1;jettySize=auto;html=1;exitX=0;exitY=0.3333333333333333;exitDx=0;exitDy=0;exitPerimeter=0;entryX=1;entryY=0.5;entryDx=0;entryDy=0;fontColor=#143642;endArrow=classic;endFill=1;strokeColor=#A8201A;fillColor=#FAE5C7;" parent="jUjPNulSDmA4rLi2D7U4-1" source="SbxhVR2RaEPP9orIsQn3-9" target="SbxhVR2RaEPP9orIsQn3-12" edge="1">
          <mxGeometry relative="1" as="geometry" />
        </mxCell>
        <mxCell id="SbxhVR2RaEPP9orIsQn3-29" style="edgeStyle=orthogonalEdgeStyle;rounded=1;orthogonalLoop=1;jettySize=auto;html=1;exitX=0;exitY=0.3333333333333333;exitDx=0;exitDy=0;exitPerimeter=0;entryX=1;entryY=0.5;entryDx=0;entryDy=0;fontColor=#143642;endArrow=classic;endFill=1;strokeColor=#A8201A;fillColor=#FAE5C7;" parent="jUjPNulSDmA4rLi2D7U4-1" source="SbxhVR2RaEPP9orIsQn3-9" target="SbxhVR2RaEPP9orIsQn3-14" edge="1">
          <mxGeometry relative="1" as="geometry" />
        </mxCell>
        <mxCell id="SbxhVR2RaEPP9orIsQn3-9" value="Elève" style="shape=umlActor;verticalLabelPosition=bottom;verticalAlign=top;html=1;fillColor=#FAE5C7;strokeColor=#0F8B8D;fontColor=#143642;" parent="jUjPNulSDmA4rLi2D7U4-1" vertex="1">
          <mxGeometry x="690" y="515" width="100" height="210" as="geometry" />
        </mxCell>
        <mxCell id="SbxhVR2RaEPP9orIsQn3-10" value="Site web Learn@Home&lt;br&gt;Page Chat" style="text;html=1;strokeColor=none;fillColor=none;align=center;verticalAlign=middle;whiteSpace=wrap;rounded=0;fontColor=#143642;" parent="jUjPNulSDmA4rLi2D7U4-1" vertex="1">
          <mxGeometry x="248" y="40" width="330" height="20" as="geometry" />
        </mxCell>
        <mxCell id="SbxhVR2RaEPP9orIsQn3-11" value="sélectionner un contact" style="ellipse;whiteSpace=wrap;html=1;fillColor=#FAE5C7;strokeColor=#0F8B8D;fontColor=#143642;strokeWidth=3;" parent="jUjPNulSDmA4rLi2D7U4-1" vertex="1">
          <mxGeometry x="332.5" y="130" width="157" height="100" as="geometry" />
        </mxCell>
        <mxCell id="SbxhVR2RaEPP9orIsQn3-12" value="visualiser ses salons de discussion" style="ellipse;whiteSpace=wrap;html=1;fillColor=#FAE5C7;strokeColor=#0F8B8D;fontColor=#143642;strokeWidth=3;" parent="jUjPNulSDmA4rLi2D7U4-1" vertex="1">
          <mxGeometry x="332.5" y="310" width="157" height="100" as="geometry" />
        </mxCell>
        <mxCell id="SbxhVR2RaEPP9orIsQn3-13" value="écrire à un contact" style="ellipse;whiteSpace=wrap;html=1;fillColor=#FAE5C7;strokeColor=#0F8B8D;fontColor=#143642;strokeWidth=3;" parent="jUjPNulSDmA4rLi2D7U4-1" vertex="1">
          <mxGeometry x="332.5" y="535" width="157" height="100" as="geometry" />
        </mxCell>
        <mxCell id="SbxhVR2RaEPP9orIsQn3-14" value="supprimer une discussion d&#39;un contact ou un salon" style="ellipse;whiteSpace=wrap;html=1;fillColor=#FAE5C7;strokeColor=#0F8B8D;fontColor=#143642;strokeWidth=3;" parent="jUjPNulSDmA4rLi2D7U4-1" vertex="1">
          <mxGeometry x="335" y="780" width="157" height="100" as="geometry" />
        </mxCell>
      </root>
    </mxGraphModel>
  </diagram>
  <diagram name="calendrier" id="0_O6Pmq6TEKiq96XmSJO">
    <mxGraphModel dx="1343" dy="817" grid="1" gridSize="10" guides="1" tooltips="1" connect="1" arrows="1" fold="1" page="1" pageScale="1" pageWidth="827" pageHeight="1169" background="#DAD2D8" math="0" shadow="0">
      <root>
        <mxCell id="DOf-S0gyCv8YP7Yz2hiO-0" />
        <mxCell id="DOf-S0gyCv8YP7Yz2hiO-1" parent="DOf-S0gyCv8YP7Yz2hiO-0" />
        <mxCell id="1ntwQA6LffT0qTcVlcce-0" value="" style="rounded=1;whiteSpace=wrap;html=1;absoluteArcSize=1;arcSize=122;strokeWidth=2;fillColor=#FAE5C7;strokeColor=#0F8B8D;fontColor=#143642;" parent="DOf-S0gyCv8YP7Yz2hiO-1" vertex="1">
          <mxGeometry x="203" y="100" width="420" height="860" as="geometry" />
        </mxCell>
        <mxCell id="1ntwQA6LffT0qTcVlcce-1" style="edgeStyle=orthogonalEdgeStyle;rounded=1;orthogonalLoop=1;jettySize=auto;html=1;exitX=1;exitY=0.3333333333333333;exitDx=0;exitDy=0;exitPerimeter=0;entryX=0;entryY=0.5;entryDx=0;entryDy=0;fontColor=#143642;endArrow=classic;endFill=1;strokeColor=#A8201A;fillColor=#FAE5C7;" parent="DOf-S0gyCv8YP7Yz2hiO-1" source="1ntwQA6LffT0qTcVlcce-7" target="1ntwQA6LffT0qTcVlcce-18" edge="1">
          <mxGeometry relative="1" as="geometry" />
        </mxCell>
        <mxCell id="1ntwQA6LffT0qTcVlcce-2" style="edgeStyle=orthogonalEdgeStyle;rounded=1;orthogonalLoop=1;jettySize=auto;html=1;exitX=1;exitY=0.3333333333333333;exitDx=0;exitDy=0;exitPerimeter=0;entryX=0;entryY=0.5;entryDx=0;entryDy=0;fontColor=#143642;endArrow=classic;endFill=1;strokeColor=#A8201A;fillColor=#FAE5C7;" parent="DOf-S0gyCv8YP7Yz2hiO-1" source="1ntwQA6LffT0qTcVlcce-7" target="1ntwQA6LffT0qTcVlcce-17" edge="1">
          <mxGeometry relative="1" as="geometry" />
        </mxCell>
        <mxCell id="1ntwQA6LffT0qTcVlcce-3" style="edgeStyle=orthogonalEdgeStyle;rounded=1;orthogonalLoop=1;jettySize=auto;html=1;exitX=1;exitY=0.3333333333333333;exitDx=0;exitDy=0;exitPerimeter=0;entryX=0;entryY=0.5;entryDx=0;entryDy=0;fontColor=#143642;endArrow=classic;endFill=1;strokeColor=#A8201A;fillColor=#FAE5C7;" parent="DOf-S0gyCv8YP7Yz2hiO-1" source="1ntwQA6LffT0qTcVlcce-7" target="1ntwQA6LffT0qTcVlcce-16" edge="1">
          <mxGeometry relative="1" as="geometry">
            <Array as="points">
              <mxPoint x="240" y="549" />
              <mxPoint x="240" y="425" />
            </Array>
          </mxGeometry>
        </mxCell>
        <mxCell id="1ntwQA6LffT0qTcVlcce-4" style="edgeStyle=orthogonalEdgeStyle;rounded=1;orthogonalLoop=1;jettySize=auto;html=1;exitX=1;exitY=0.3333333333333333;exitDx=0;exitDy=0;exitPerimeter=0;entryX=0;entryY=0.5;entryDx=0;entryDy=0;fontColor=#143642;endArrow=classic;endFill=1;strokeColor=#A8201A;fillColor=#FAE5C7;" parent="DOf-S0gyCv8YP7Yz2hiO-1" source="1ntwQA6LffT0qTcVlcce-7" target="1ntwQA6LffT0qTcVlcce-15" edge="1">
          <mxGeometry relative="1" as="geometry">
            <Array as="points">
              <mxPoint x="240" y="549" />
              <mxPoint x="240" y="270" />
            </Array>
          </mxGeometry>
        </mxCell>
        <mxCell id="1ntwQA6LffT0qTcVlcce-7" value="Bénévole" style="shape=umlActor;verticalLabelPosition=bottom;verticalAlign=top;html=1;fillColor=#FAE5C7;strokeColor=#0F8B8D;fontColor=#143642;" parent="DOf-S0gyCv8YP7Yz2hiO-1" vertex="1">
          <mxGeometry x="30" y="479" width="100" height="210" as="geometry" />
        </mxCell>
        <mxCell id="1ntwQA6LffT0qTcVlcce-32" style="edgeStyle=orthogonalEdgeStyle;rounded=1;orthogonalLoop=1;jettySize=auto;html=1;exitX=0;exitY=0.3333333333333333;exitDx=0;exitDy=0;exitPerimeter=0;entryX=1;entryY=0.5;entryDx=0;entryDy=0;fontColor=#143642;endArrow=classic;endFill=1;strokeColor=#A8201A;fillColor=#FAE5C7;" parent="DOf-S0gyCv8YP7Yz2hiO-1" source="1ntwQA6LffT0qTcVlcce-11" target="1ntwQA6LffT0qTcVlcce-15" edge="1">
          <mxGeometry relative="1" as="geometry" />
        </mxCell>
        <mxCell id="1ntwQA6LffT0qTcVlcce-11" value="Elève" style="shape=umlActor;verticalLabelPosition=bottom;verticalAlign=top;html=1;fillColor=#FAE5C7;strokeColor=#0F8B8D;fontColor=#143642;" parent="DOf-S0gyCv8YP7Yz2hiO-1" vertex="1">
          <mxGeometry x="700" y="479" width="100" height="210" as="geometry" />
        </mxCell>
        <mxCell id="1ntwQA6LffT0qTcVlcce-12" value="Site web Learn@Home&lt;br&gt;Page Calendrier" style="text;html=1;strokeColor=none;fillColor=none;align=center;verticalAlign=middle;whiteSpace=wrap;rounded=0;fontColor=#143642;" parent="DOf-S0gyCv8YP7Yz2hiO-1" vertex="1">
          <mxGeometry x="240" y="110" width="330" height="20" as="geometry" />
        </mxCell>
        <mxCell id="1ntwQA6LffT0qTcVlcce-15" value="visualiser son calendrier" style="ellipse;whiteSpace=wrap;html=1;fillColor=#FAE5C7;strokeColor=#0F8B8D;fontColor=#143642;strokeWidth=3;" parent="DOf-S0gyCv8YP7Yz2hiO-1" vertex="1">
          <mxGeometry x="341.96" y="220" width="157" height="100" as="geometry" />
        </mxCell>
        <mxCell id="1ntwQA6LffT0qTcVlcce-16" value="écrire une note" style="ellipse;whiteSpace=wrap;html=1;fillColor=#FAE5C7;strokeColor=#0F8B8D;fontColor=#143642;strokeWidth=3;" parent="DOf-S0gyCv8YP7Yz2hiO-1" vertex="1">
          <mxGeometry x="335" y="375" width="157" height="100" as="geometry" />
        </mxCell>
        <mxCell id="1ntwQA6LffT0qTcVlcce-17" value="prendre rendez-vous avec un contact" style="ellipse;whiteSpace=wrap;html=1;fillColor=#FAE5C7;strokeColor=#0F8B8D;fontColor=#143642;strokeWidth=3;" parent="DOf-S0gyCv8YP7Yz2hiO-1" vertex="1">
          <mxGeometry x="334" y="565" width="157" height="100" as="geometry" />
        </mxCell>
        <mxCell id="1ntwQA6LffT0qTcVlcce-18" value="consulter la liste de tâche d&#39;un contact" style="ellipse;whiteSpace=wrap;html=1;fillColor=#FAE5C7;strokeColor=#0F8B8D;fontColor=#143642;strokeWidth=3;" parent="DOf-S0gyCv8YP7Yz2hiO-1" vertex="1">
          <mxGeometry x="334.5" y="740" width="157" height="100" as="geometry" />
        </mxCell>
        <mxCell id="VOa9i0erHNDmpdjfBkR9-0" value="Sélectionner un contact" style="ellipse;whiteSpace=wrap;html=1;fillColor=#FAE5C7;strokeColor=#67AB9F;fontColor=#143642;strokeWidth=3;" parent="DOf-S0gyCv8YP7Yz2hiO-1" vertex="1">
          <mxGeometry x="509.99999999999994" y="840" width="85" height="60" as="geometry" />
        </mxCell>
        <mxCell id="VOa9i0erHNDmpdjfBkR9-1" value="&amp;lt;&amp;lt;inclus&amp;gt;&amp;gt;" style="html=1;verticalAlign=bottom;endArrow=open;dashed=1;endSize=8;fontColor=#143642;strokeColor=#A8201A;fillColor=#FAE5C7;exitX=1;exitY=1;exitDx=0;exitDy=0;entryX=0;entryY=0;entryDx=0;entryDy=0;" parent="DOf-S0gyCv8YP7Yz2hiO-1" source="1ntwQA6LffT0qTcVlcce-18" target="VOa9i0erHNDmpdjfBkR9-0" edge="1">
          <mxGeometry x="0.0127" y="-9" relative="1" as="geometry">
            <mxPoint x="466.3302584602293" y="875.4681143975829" as="sourcePoint" />
            <mxPoint x="544.5799999999999" y="894.53" as="targetPoint" />
            <mxPoint as="offset" />
          </mxGeometry>
        </mxCell>
        <mxCell id="Rbxry_IpRQN8XwkAXmYy-0" value="Sélectionner un contact" style="ellipse;whiteSpace=wrap;html=1;fillColor=#FAE5C7;strokeColor=#67AB9F;fontColor=#143642;strokeWidth=3;" vertex="1" parent="DOf-S0gyCv8YP7Yz2hiO-1">
          <mxGeometry x="498.96" y="673" width="85" height="60" as="geometry" />
        </mxCell>
        <mxCell id="Rbxry_IpRQN8XwkAXmYy-1" value="&amp;lt;&amp;lt;inclus&amp;gt;&amp;gt;" style="html=1;verticalAlign=bottom;endArrow=open;dashed=1;endSize=8;fontColor=#143642;strokeColor=#A8201A;fillColor=#FAE5C7;entryX=0;entryY=0;entryDx=0;entryDy=0;" edge="1" parent="DOf-S0gyCv8YP7Yz2hiO-1" target="Rbxry_IpRQN8XwkAXmYy-0" source="1ntwQA6LffT0qTcVlcce-17">
          <mxGeometry x="0.0127" y="-9" relative="1" as="geometry">
            <mxPoint x="450.0019999999999" y="665" as="sourcePoint" />
            <mxPoint x="533.54" y="727.53" as="targetPoint" />
            <mxPoint as="offset" />
          </mxGeometry>
        </mxCell>
      </root>
    </mxGraphModel>
  </diagram>
  <diagram name="Gestion de taches" id="CNfCnqIy1nOt1JhxOm4d">
    <mxGraphModel dx="806" dy="490" grid="1" gridSize="10" guides="1" tooltips="1" connect="1" arrows="1" fold="1" page="1" pageScale="1" pageWidth="827" pageHeight="1169" background="#DAD2D8" math="0" shadow="0">
      <root>
        <mxCell id="WXTtPWbgd7FlGvqmc448-0" />
        <mxCell id="WXTtPWbgd7FlGvqmc448-1" parent="WXTtPWbgd7FlGvqmc448-0" />
        <mxCell id="wHXIrMfXZqtEA2M9oa7I-0" value="" style="rounded=1;whiteSpace=wrap;html=1;absoluteArcSize=1;arcSize=122;strokeWidth=2;fillColor=#FAE5C7;strokeColor=#0F8B8D;fontColor=#143642;" parent="WXTtPWbgd7FlGvqmc448-1" vertex="1">
          <mxGeometry x="210" y="30" width="420" height="1000" as="geometry" />
        </mxCell>
        <mxCell id="xKzWtt5PrQXULl82wDnu-2" style="edgeStyle=orthogonalEdgeStyle;rounded=1;orthogonalLoop=1;jettySize=auto;html=1;exitX=1;exitY=0.3333333333333333;exitDx=0;exitDy=0;exitPerimeter=0;entryX=0;entryY=0.5;entryDx=0;entryDy=0;fontColor=#143642;endArrow=classic;endFill=1;strokeColor=#A8201A;fillColor=#FAE5C7;" parent="WXTtPWbgd7FlGvqmc448-1" source="wHXIrMfXZqtEA2M9oa7I-1" target="wHXIrMfXZqtEA2M9oa7I-6" edge="1">
          <mxGeometry relative="1" as="geometry" />
        </mxCell>
        <mxCell id="xKzWtt5PrQXULl82wDnu-4" style="edgeStyle=orthogonalEdgeStyle;rounded=1;orthogonalLoop=1;jettySize=auto;html=1;exitX=1;exitY=0.3333333333333333;exitDx=0;exitDy=0;exitPerimeter=0;entryX=0;entryY=0.5;entryDx=0;entryDy=0;fontColor=#143642;endArrow=classic;endFill=1;strokeColor=#A8201A;fillColor=#FAE5C7;" parent="WXTtPWbgd7FlGvqmc448-1" source="wHXIrMfXZqtEA2M9oa7I-1" target="wHXIrMfXZqtEA2M9oa7I-7" edge="1">
          <mxGeometry relative="1" as="geometry" />
        </mxCell>
        <mxCell id="kvH8WPG0Yccxxm7Ld1RE-0" style="edgeStyle=orthogonalEdgeStyle;rounded=0;orthogonalLoop=1;jettySize=auto;html=1;exitX=1;exitY=0.3333333333333333;exitDx=0;exitDy=0;exitPerimeter=0;entryX=0;entryY=0.5;entryDx=0;entryDy=0;strokeColor=#A8201A;" parent="WXTtPWbgd7FlGvqmc448-1" source="wHXIrMfXZqtEA2M9oa7I-1" target="g7iJF341yFUH4qKAj3CY-0" edge="1">
          <mxGeometry relative="1" as="geometry" />
        </mxCell>
        <mxCell id="wHXIrMfXZqtEA2M9oa7I-1" value="Bénévole" style="shape=umlActor;verticalLabelPosition=bottom;verticalAlign=top;html=1;fillColor=#FAE5C7;strokeColor=#0F8B8D;fontColor=#143642;" parent="WXTtPWbgd7FlGvqmc448-1" vertex="1">
          <mxGeometry x="40" y="420" width="100" height="210" as="geometry" />
        </mxCell>
        <mxCell id="xKzWtt5PrQXULl82wDnu-7" style="edgeStyle=orthogonalEdgeStyle;rounded=1;orthogonalLoop=1;jettySize=auto;html=1;exitX=0;exitY=0.3333333333333333;exitDx=0;exitDy=0;exitPerimeter=0;entryX=1;entryY=0.5;entryDx=0;entryDy=0;fontColor=#143642;endArrow=classic;endFill=1;strokeColor=#A8201A;fillColor=#FAE5C7;" parent="WXTtPWbgd7FlGvqmc448-1" source="wHXIrMfXZqtEA2M9oa7I-2" target="wHXIrMfXZqtEA2M9oa7I-7" edge="1">
          <mxGeometry relative="1" as="geometry">
            <Array as="points">
              <mxPoint x="610" y="490" />
              <mxPoint x="610" y="880" />
            </Array>
          </mxGeometry>
        </mxCell>
        <mxCell id="xKzWtt5PrQXULl82wDnu-8" style="edgeStyle=orthogonalEdgeStyle;rounded=1;orthogonalLoop=1;jettySize=auto;html=1;exitX=0;exitY=0.3333333333333333;exitDx=0;exitDy=0;exitPerimeter=0;entryX=1;entryY=0.5;entryDx=0;entryDy=0;fontColor=#143642;endArrow=classic;endFill=1;strokeColor=#A8201A;fillColor=#FAE5C7;" parent="WXTtPWbgd7FlGvqmc448-1" source="wHXIrMfXZqtEA2M9oa7I-2" target="wHXIrMfXZqtEA2M9oa7I-6" edge="1">
          <mxGeometry relative="1" as="geometry">
            <Array as="points">
              <mxPoint x="610" y="490" />
              <mxPoint x="610" y="320" />
            </Array>
          </mxGeometry>
        </mxCell>
        <mxCell id="s_U7M8CdzGXlAqBTSheY-2" style="edgeStyle=orthogonalEdgeStyle;rounded=1;orthogonalLoop=1;jettySize=auto;html=1;exitX=0;exitY=0.3333333333333333;exitDx=0;exitDy=0;exitPerimeter=0;entryX=1;entryY=0.5;entryDx=0;entryDy=0;fontColor=#143642;endArrow=classic;endFill=1;strokeColor=#A8201A;fillColor=#FAE5C7;" parent="WXTtPWbgd7FlGvqmc448-1" source="wHXIrMfXZqtEA2M9oa7I-2" target="g7iJF341yFUH4qKAj3CY-0" edge="1">
          <mxGeometry relative="1" as="geometry" />
        </mxCell>
        <mxCell id="kvH8WPG0Yccxxm7Ld1RE-3" style="edgeStyle=orthogonalEdgeStyle;rounded=0;orthogonalLoop=1;jettySize=auto;html=1;exitX=0;exitY=0.3333333333333333;exitDx=0;exitDy=0;exitPerimeter=0;entryX=1;entryY=0.5;entryDx=0;entryDy=0;strokeColor=#A8201A;" parent="WXTtPWbgd7FlGvqmc448-1" source="wHXIrMfXZqtEA2M9oa7I-2" target="kvH8WPG0Yccxxm7Ld1RE-2" edge="1">
          <mxGeometry relative="1" as="geometry">
            <Array as="points">
              <mxPoint x="610" y="490" />
              <mxPoint x="610" y="690" />
            </Array>
          </mxGeometry>
        </mxCell>
        <mxCell id="9tvXcjX0Wf9AwRaFqIiD-9" style="edgeStyle=orthogonalEdgeStyle;rounded=0;orthogonalLoop=1;jettySize=auto;html=1;exitX=0;exitY=0.3333333333333333;exitDx=0;exitDy=0;exitPerimeter=0;entryX=1;entryY=0.5;entryDx=0;entryDy=0;strokeColor=#A8201A;" edge="1" parent="WXTtPWbgd7FlGvqmc448-1" source="wHXIrMfXZqtEA2M9oa7I-2" target="g7iJF341yFUH4qKAj3CY-1">
          <mxGeometry relative="1" as="geometry">
            <Array as="points">
              <mxPoint x="610" y="490" />
              <mxPoint x="610" y="170" />
            </Array>
          </mxGeometry>
        </mxCell>
        <mxCell id="wHXIrMfXZqtEA2M9oa7I-2" value="Elève" style="shape=umlActor;verticalLabelPosition=bottom;verticalAlign=top;html=1;fillColor=#FAE5C7;strokeColor=#0F8B8D;fontColor=#143642;" parent="WXTtPWbgd7FlGvqmc448-1" vertex="1">
          <mxGeometry x="690" y="420" width="100" height="210" as="geometry" />
        </mxCell>
        <mxCell id="wHXIrMfXZqtEA2M9oa7I-3" value="Site web Learn@Home&lt;br&gt;Page Gestion des tâches" style="text;html=1;strokeColor=none;fillColor=none;align=center;verticalAlign=middle;whiteSpace=wrap;rounded=0;fontColor=#143642;" parent="WXTtPWbgd7FlGvqmc448-1" vertex="1">
          <mxGeometry x="248" y="40" width="330" height="20" as="geometry" />
        </mxCell>
        <mxCell id="wHXIrMfXZqtEA2M9oa7I-6" value="ajouter une tâche" style="ellipse;whiteSpace=wrap;html=1;fillColor=#FAE5C7;strokeColor=#0F8B8D;fontColor=#143642;strokeWidth=3;" parent="WXTtPWbgd7FlGvqmc448-1" vertex="1">
          <mxGeometry x="336" y="270" width="157" height="100" as="geometry" />
        </mxCell>
        <mxCell id="wHXIrMfXZqtEA2M9oa7I-7" value="Ecrire une note" style="ellipse;whiteSpace=wrap;html=1;fillColor=#FAE5C7;strokeColor=#0F8B8D;fontColor=#143642;strokeWidth=3;" parent="WXTtPWbgd7FlGvqmc448-1" vertex="1">
          <mxGeometry x="341.5" y="830" width="157" height="100" as="geometry" />
        </mxCell>
        <mxCell id="g7iJF341yFUH4qKAj3CY-0" value="supprimer une&amp;nbsp;&lt;span style=&quot;color: rgba(0 , 0 , 0 , 0) ; font-family: monospace ; font-size: 0px&quot;&gt;%3CmxGraphModel%3E%3Croot%3E%3CmxCell%20id%3D%220%22%2F%3E%3CmxCell%20id%3D%221%22%20parent%3D%220%22%2F%3E%3CmxCell%20id%3D%222%22%20value%3D%22ajouter%20une%20t%C3%A2che%22%20style%3D%22ellipse%3BwhiteSpace%3Dwrap%3Bhtml%3D1%3BfillColor%3D%23FAE5C7%3BstrokeColor%3D%230F8B8D%3BfontColor%3D%23143642%3BstrokeWidth%3D3%3B%22%20vertex%3D%221%22%20parent%3D%221%22%3E%3CmxGeometry%20x%3D%22335%22%20y%3D%22610%22%20width%3D%22157%22%20height%3D%22100%22%20as%3D%22geometry%22%2F%3E%3C%2FmxCell%3E%3C%2Froot%3E%3C%2FmxGraphModel%3E&lt;/span&gt;&lt;br&gt;&amp;nbsp;une tâche" style="ellipse;whiteSpace=wrap;html=1;fillColor=#FAE5C7;strokeColor=#0F8B8D;fontColor=#143642;strokeWidth=3;" parent="WXTtPWbgd7FlGvqmc448-1" vertex="1">
          <mxGeometry x="333" y="440" width="157" height="100" as="geometry" />
        </mxCell>
        <mxCell id="g7iJF341yFUH4qKAj3CY-1" value="valider une tâche" style="ellipse;whiteSpace=wrap;html=1;fillColor=#FAE5C7;strokeColor=#0F8B8D;fontColor=#143642;strokeWidth=3;" parent="WXTtPWbgd7FlGvqmc448-1" vertex="1">
          <mxGeometry x="341.5" y="120" width="157" height="100" as="geometry" />
        </mxCell>
        <mxCell id="kvH8WPG0Yccxxm7Ld1RE-2" value="visualiser les tâches urgentes" style="ellipse;whiteSpace=wrap;html=1;fillColor=#FAE5C7;strokeColor=#0F8B8D;fontColor=#143642;strokeWidth=3;" parent="WXTtPWbgd7FlGvqmc448-1" vertex="1">
          <mxGeometry x="336" y="640" width="157" height="100" as="geometry" />
        </mxCell>
        <mxCell id="9tvXcjX0Wf9AwRaFqIiD-1" value="&lt;span&gt;Sélectionner un contact&lt;/span&gt;" style="ellipse;whiteSpace=wrap;html=1;fillColor=#FAE5C7;strokeColor=#67AB9F;fontColor=#143642;strokeWidth=3;" vertex="1" parent="WXTtPWbgd7FlGvqmc448-1">
          <mxGeometry x="492" y="360" width="85" height="60" as="geometry" />
        </mxCell>
        <mxCell id="9tvXcjX0Wf9AwRaFqIiD-2" value="&amp;lt;&amp;lt;inclus&amp;gt;&amp;gt;" style="html=1;verticalAlign=bottom;endArrow=open;dashed=1;endSize=8;fontColor=#143642;strokeColor=#A8201A;fillColor=#FAE5C7;exitX=1;exitY=1;exitDx=0;exitDy=0;entryX=0;entryY=0.5;entryDx=0;entryDy=0;" edge="1" parent="WXTtPWbgd7FlGvqmc448-1" target="9tvXcjX0Wf9AwRaFqIiD-1" source="wHXIrMfXZqtEA2M9oa7I-6">
          <mxGeometry relative="1" as="geometry">
            <mxPoint x="408" y="585" as="sourcePoint" />
            <mxPoint x="385.5" y="555" as="targetPoint" />
          </mxGeometry>
        </mxCell>
        <mxCell id="9tvXcjX0Wf9AwRaFqIiD-3" value="&lt;span&gt;Sélectionner un contact&lt;/span&gt;" style="ellipse;whiteSpace=wrap;html=1;fillColor=#FAE5C7;strokeColor=#67AB9F;fontColor=#143642;strokeWidth=3;" vertex="1" parent="WXTtPWbgd7FlGvqmc448-1">
          <mxGeometry x="493" y="525" width="85" height="60" as="geometry" />
        </mxCell>
        <mxCell id="9tvXcjX0Wf9AwRaFqIiD-4" value="&amp;lt;&amp;lt;inclus&amp;gt;&amp;gt;" style="html=1;verticalAlign=bottom;endArrow=open;dashed=1;endSize=8;fontColor=#143642;strokeColor=#A8201A;fillColor=#FAE5C7;entryX=0;entryY=0.5;entryDx=0;entryDy=0;exitX=1;exitY=1;exitDx=0;exitDy=0;" edge="1" parent="WXTtPWbgd7FlGvqmc448-1" target="9tvXcjX0Wf9AwRaFqIiD-3" source="g7iJF341yFUH4qKAj3CY-0">
          <mxGeometry relative="1" as="geometry">
            <mxPoint x="457.4525465884726" y="540.0011992400501" as="sourcePoint" />
            <mxPoint x="385.5" y="719.68" as="targetPoint" />
          </mxGeometry>
        </mxCell>
        <mxCell id="9tvXcjX0Wf9AwRaFqIiD-7" value="&lt;span&gt;Sélectionner un contact&lt;/span&gt;" style="ellipse;whiteSpace=wrap;html=1;fillColor=#FAE5C7;strokeColor=#67AB9F;fontColor=#143642;strokeWidth=3;" vertex="1" parent="WXTtPWbgd7FlGvqmc448-1">
          <mxGeometry x="492.99999999999994" y="920" width="85" height="60" as="geometry" />
        </mxCell>
        <mxCell id="9tvXcjX0Wf9AwRaFqIiD-8" value="&amp;lt;&amp;lt;inclus&amp;gt;&amp;gt;" style="html=1;verticalAlign=bottom;endArrow=open;dashed=1;endSize=8;fontColor=#143642;strokeColor=#A8201A;fillColor=#FAE5C7;entryX=0;entryY=0.5;entryDx=0;entryDy=0;exitX=1;exitY=1;exitDx=0;exitDy=0;" edge="1" parent="WXTtPWbgd7FlGvqmc448-1" target="9tvXcjX0Wf9AwRaFqIiD-7" source="wHXIrMfXZqtEA2M9oa7I-7">
          <mxGeometry relative="1" as="geometry">
            <mxPoint x="449.160258460232" y="935.4681143975847" as="sourcePoint" />
            <mxPoint x="385.5" y="1124.6799999999998" as="targetPoint" />
          </mxGeometry>
        </mxCell>
      </root>
    </mxGraphModel>
  </diagram>
  <diagram name="Contact" id="jLS3fki2aJljjSCu7amW">
    <mxGraphModel dx="806" dy="490" grid="1" gridSize="10" guides="1" tooltips="1" connect="1" arrows="1" fold="1" page="1" pageScale="1" pageWidth="827" pageHeight="1169" background="#DAD2D8" math="0" shadow="0">
      <root>
        <mxCell id="5vwQFB1EGFWnGSSuwMpy-0" />
        <mxCell id="5vwQFB1EGFWnGSSuwMpy-1" parent="5vwQFB1EGFWnGSSuwMpy-0" />
        <mxCell id="Hb3121Sesb2D6RizW1UG-0" value="" style="rounded=1;whiteSpace=wrap;html=1;absoluteArcSize=1;arcSize=122;strokeWidth=2;fillColor=#FAE5C7;strokeColor=#0F8B8D;fontColor=#143642;" parent="5vwQFB1EGFWnGSSuwMpy-1" vertex="1">
          <mxGeometry x="203" y="30" width="420" height="1120" as="geometry" />
        </mxCell>
        <mxCell id="Hb3121Sesb2D6RizW1UG-25" style="edgeStyle=orthogonalEdgeStyle;rounded=1;orthogonalLoop=1;jettySize=auto;html=1;exitX=1;exitY=0.3333333333333333;exitDx=0;exitDy=0;exitPerimeter=0;entryX=0;entryY=0.5;entryDx=0;entryDy=0;fontColor=#143642;endArrow=classic;endFill=1;strokeColor=#A8201A;fillColor=#FAE5C7;" parent="5vwQFB1EGFWnGSSuwMpy-1" source="Hb3121Sesb2D6RizW1UG-1" target="Hb3121Sesb2D6RizW1UG-24" edge="1">
          <mxGeometry relative="1" as="geometry" />
        </mxCell>
        <mxCell id="Hb3121Sesb2D6RizW1UG-26" style="edgeStyle=orthogonalEdgeStyle;rounded=1;orthogonalLoop=1;jettySize=auto;html=1;exitX=1;exitY=0.3333333333333333;exitDx=0;exitDy=0;exitPerimeter=0;entryX=0;entryY=0.5;entryDx=0;entryDy=0;fontColor=#143642;endArrow=classic;endFill=1;strokeColor=#A8201A;fillColor=#FAE5C7;" parent="5vwQFB1EGFWnGSSuwMpy-1" source="Hb3121Sesb2D6RizW1UG-1" target="Hb3121Sesb2D6RizW1UG-19" edge="1">
          <mxGeometry relative="1" as="geometry" />
        </mxCell>
        <mxCell id="Hb3121Sesb2D6RizW1UG-27" style="edgeStyle=orthogonalEdgeStyle;rounded=1;orthogonalLoop=1;jettySize=auto;html=1;exitX=1;exitY=0.3333333333333333;exitDx=0;exitDy=0;exitPerimeter=0;entryX=0;entryY=0.5;entryDx=0;entryDy=0;fontColor=#143642;endArrow=classic;endFill=1;strokeColor=#A8201A;fillColor=#FAE5C7;" parent="5vwQFB1EGFWnGSSuwMpy-1" source="Hb3121Sesb2D6RizW1UG-1" target="Hb3121Sesb2D6RizW1UG-18" edge="1">
          <mxGeometry relative="1" as="geometry" />
        </mxCell>
        <mxCell id="Hb3121Sesb2D6RizW1UG-28" style="edgeStyle=orthogonalEdgeStyle;rounded=1;orthogonalLoop=1;jettySize=auto;html=1;exitX=1;exitY=0.3333333333333333;exitDx=0;exitDy=0;exitPerimeter=0;entryX=0;entryY=0.5;entryDx=0;entryDy=0;fontColor=#143642;endArrow=classic;endFill=1;strokeColor=#A8201A;fillColor=#FAE5C7;" parent="5vwQFB1EGFWnGSSuwMpy-1" source="Hb3121Sesb2D6RizW1UG-1" target="Hb3121Sesb2D6RizW1UG-17" edge="1">
          <mxGeometry relative="1" as="geometry" />
        </mxCell>
        <mxCell id="Hb3121Sesb2D6RizW1UG-29" style="edgeStyle=orthogonalEdgeStyle;rounded=1;orthogonalLoop=1;jettySize=auto;html=1;exitX=1;exitY=0.3333333333333333;exitDx=0;exitDy=0;exitPerimeter=0;entryX=0;entryY=0.5;entryDx=0;entryDy=0;fontColor=#143642;endArrow=classic;endFill=1;strokeColor=#A8201A;fillColor=#FAE5C7;" parent="5vwQFB1EGFWnGSSuwMpy-1" source="Hb3121Sesb2D6RizW1UG-1" target="Hb3121Sesb2D6RizW1UG-16" edge="1">
          <mxGeometry relative="1" as="geometry" />
        </mxCell>
        <mxCell id="Hb3121Sesb2D6RizW1UG-1" value="Bénévole" style="shape=umlActor;verticalLabelPosition=bottom;verticalAlign=top;html=1;fillColor=#FAE5C7;strokeColor=#0F8B8D;fontColor=#143642;" parent="5vwQFB1EGFWnGSSuwMpy-1" vertex="1">
          <mxGeometry x="20" y="515" width="100" height="210" as="geometry" />
        </mxCell>
        <mxCell id="Hb3121Sesb2D6RizW1UG-33" style="edgeStyle=orthogonalEdgeStyle;rounded=1;orthogonalLoop=1;jettySize=auto;html=1;exitX=0;exitY=0.3333333333333333;exitDx=0;exitDy=0;exitPerimeter=0;entryX=1;entryY=0.5;entryDx=0;entryDy=0;fontColor=#143642;endArrow=classic;endFill=1;strokeColor=#A8201A;fillColor=#FAE5C7;" parent="5vwQFB1EGFWnGSSuwMpy-1" source="Hb3121Sesb2D6RizW1UG-2" target="Hb3121Sesb2D6RizW1UG-17" edge="1">
          <mxGeometry relative="1" as="geometry" />
        </mxCell>
        <mxCell id="i8sHhnJRCR9jXlkiBBY4-3" style="edgeStyle=orthogonalEdgeStyle;rounded=1;orthogonalLoop=1;jettySize=auto;html=1;exitX=0;exitY=0.3333333333333333;exitDx=0;exitDy=0;exitPerimeter=0;entryX=1;entryY=0.5;entryDx=0;entryDy=0;fontColor=#143642;endArrow=classic;endFill=1;strokeColor=#A8201A;fillColor=#FAE5C7;" parent="5vwQFB1EGFWnGSSuwMpy-1" source="Hb3121Sesb2D6RizW1UG-2" target="Hb3121Sesb2D6RizW1UG-16" edge="1">
          <mxGeometry relative="1" as="geometry" />
        </mxCell>
        <mxCell id="Hb3121Sesb2D6RizW1UG-2" value="Elève" style="shape=umlActor;verticalLabelPosition=bottom;verticalAlign=top;html=1;fillColor=#FAE5C7;strokeColor=#0F8B8D;fontColor=#143642;" parent="5vwQFB1EGFWnGSSuwMpy-1" vertex="1">
          <mxGeometry x="690" y="515" width="100" height="210" as="geometry" />
        </mxCell>
        <mxCell id="Hb3121Sesb2D6RizW1UG-3" value="Site web Learn@Home&lt;br&gt;Page Contact" style="text;html=1;strokeColor=none;fillColor=none;align=center;verticalAlign=middle;whiteSpace=wrap;rounded=0;fontColor=#143642;" parent="5vwQFB1EGFWnGSSuwMpy-1" vertex="1">
          <mxGeometry x="248" y="40" width="330" height="20" as="geometry" />
        </mxCell>
        <mxCell id="Hb3121Sesb2D6RizW1UG-16" value="visualiser un contact" style="ellipse;whiteSpace=wrap;html=1;fillColor=#FAE5C7;strokeColor=#0F8B8D;fontColor=#143642;strokeWidth=3;" parent="5vwQFB1EGFWnGSSuwMpy-1" vertex="1">
          <mxGeometry x="335" y="140" width="157" height="100" as="geometry" />
        </mxCell>
        <mxCell id="Hb3121Sesb2D6RizW1UG-17" value="chatter avec un contact" style="ellipse;whiteSpace=wrap;html=1;fillColor=#FAE5C7;strokeColor=#0F8B8D;fontColor=#143642;strokeWidth=3;" parent="5vwQFB1EGFWnGSSuwMpy-1" vertex="1">
          <mxGeometry x="335" y="380" width="157" height="100" as="geometry" />
        </mxCell>
        <mxCell id="Hb3121Sesb2D6RizW1UG-18" value="écrire une note" style="ellipse;whiteSpace=wrap;html=1;fillColor=#FAE5C7;strokeColor=#0F8B8D;fontColor=#143642;strokeWidth=3;" parent="5vwQFB1EGFWnGSSuwMpy-1" vertex="1">
          <mxGeometry x="334" y="585" width="157" height="100" as="geometry" />
        </mxCell>
        <mxCell id="Hb3121Sesb2D6RizW1UG-19" value="prendre rendez-vous avec un contact" style="ellipse;whiteSpace=wrap;html=1;fillColor=#FAE5C7;strokeColor=#0F8B8D;fontColor=#143642;strokeWidth=3;" parent="5vwQFB1EGFWnGSSuwMpy-1" vertex="1">
          <mxGeometry x="334" y="780" width="157" height="100" as="geometry" />
        </mxCell>
        <mxCell id="Hb3121Sesb2D6RizW1UG-24" value="consulter la liste de tâche d&#39;un contact" style="ellipse;whiteSpace=wrap;html=1;fillColor=#FAE5C7;strokeColor=#0F8B8D;fontColor=#143642;strokeWidth=3;" parent="5vwQFB1EGFWnGSSuwMpy-1" vertex="1">
          <mxGeometry x="335" y="960" width="157" height="100" as="geometry" />
        </mxCell>
        <mxCell id="i8sHhnJRCR9jXlkiBBY4-2" value="sélectionner un contact" style="ellipse;whiteSpace=wrap;html=1;fillColor=#FAE5C7;strokeColor=#67AB9F;fontColor=#143642;strokeWidth=3;" parent="5vwQFB1EGFWnGSSuwMpy-1" vertex="1">
          <mxGeometry x="489.5" y="250" width="85" height="60" as="geometry" />
        </mxCell>
        <mxCell id="i8sHhnJRCR9jXlkiBBY4-5" value="sélectionner un contact" style="ellipse;whiteSpace=wrap;html=1;fillColor=#FAE5C7;strokeColor=#67AB9F;fontColor=#143642;strokeWidth=3;" parent="5vwQFB1EGFWnGSSuwMpy-1" vertex="1">
          <mxGeometry x="492" y="490" width="85" height="60" as="geometry" />
        </mxCell>
        <mxCell id="i8sHhnJRCR9jXlkiBBY4-11" value="sélectionner un contact" style="ellipse;whiteSpace=wrap;html=1;fillColor=#FAE5C7;strokeColor=#67AB9F;fontColor=#143642;strokeWidth=3;" parent="5vwQFB1EGFWnGSSuwMpy-1" vertex="1">
          <mxGeometry x="501.7699999999999" y="1060" width="85" height="60" as="geometry" />
        </mxCell>
        <mxCell id="3flf1ZOshDCbLVVBLqW6-0" value="&amp;lt;&amp;lt;inclus&amp;gt;&amp;gt;" style="html=1;verticalAlign=bottom;endArrow=open;dashed=1;endSize=8;fontColor=#143642;strokeColor=#A8201A;fillColor=#FAE5C7;exitX=1;exitY=1;exitDx=0;exitDy=0;" parent="5vwQFB1EGFWnGSSuwMpy-1" source="Hb3121Sesb2D6RizW1UG-16" target="i8sHhnJRCR9jXlkiBBY4-2" edge="1">
          <mxGeometry relative="1" as="geometry">
            <mxPoint x="468.3302584602293" y="355.4681143975829" as="sourcePoint" />
            <mxPoint x="532.5" y="380" as="targetPoint" />
          </mxGeometry>
        </mxCell>
        <mxCell id="3flf1ZOshDCbLVVBLqW6-1" value="&amp;lt;&amp;lt;inclus&amp;gt;&amp;gt;" style="html=1;verticalAlign=bottom;endArrow=open;dashed=1;endSize=8;fontColor=#143642;strokeColor=#A8201A;fillColor=#FAE5C7;exitX=1;exitY=1;exitDx=0;exitDy=0;entryX=0;entryY=0;entryDx=0;entryDy=0;" parent="5vwQFB1EGFWnGSSuwMpy-1" source="Hb3121Sesb2D6RizW1UG-24" target="i8sHhnJRCR9jXlkiBBY4-11" edge="1">
          <mxGeometry relative="1" as="geometry">
            <mxPoint x="480.41025846022933" y="1029.9981143975829" as="sourcePoint" />
            <mxPoint x="544.5799999999999" y="1054.53" as="targetPoint" />
          </mxGeometry>
        </mxCell>
        <mxCell id="18HeZGIxDqBUU-sSrPAE-0" value="&amp;lt;&amp;lt;inclus&amp;gt;&amp;gt;" style="html=1;verticalAlign=bottom;endArrow=open;dashed=1;endSize=8;fontColor=#143642;strokeColor=#A8201A;fillColor=#FAE5C7;exitX=1;exitY=1;exitDx=0;exitDy=0;entryX=0;entryY=0;entryDx=0;entryDy=0;" edge="1" parent="5vwQFB1EGFWnGSSuwMpy-1" source="Hb3121Sesb2D6RizW1UG-17" target="i8sHhnJRCR9jXlkiBBY4-5">
          <mxGeometry relative="1" as="geometry">
            <mxPoint x="470.0002584602293" y="458.62811439758286" as="sourcePoint" />
            <mxPoint x="506.15244175340257" y="490.0020929314877" as="targetPoint" />
          </mxGeometry>
        </mxCell>
        <mxCell id="18HeZGIxDqBUU-sSrPAE-1" value="sélectionner un contact" style="ellipse;whiteSpace=wrap;html=1;fillColor=#FAE5C7;strokeColor=#67AB9F;fontColor=#143642;strokeWidth=3;" vertex="1" parent="5vwQFB1EGFWnGSSuwMpy-1">
          <mxGeometry x="489.5" y="689.9999999999999" width="85" height="60" as="geometry" />
        </mxCell>
        <mxCell id="18HeZGIxDqBUU-sSrPAE-2" value="&amp;lt;&amp;lt;inclus&amp;gt;&amp;gt;" style="html=1;verticalAlign=bottom;endArrow=open;dashed=1;endSize=8;fontColor=#143642;strokeColor=#A8201A;fillColor=#FAE5C7;entryX=0;entryY=0;entryDx=0;entryDy=0;exitX=1;exitY=1;exitDx=0;exitDy=0;" edge="1" parent="5vwQFB1EGFWnGSSuwMpy-1" target="18HeZGIxDqBUU-sSrPAE-1" source="Hb3121Sesb2D6RizW1UG-18">
          <mxGeometry relative="1" as="geometry">
            <mxPoint x="456.2502584602293" y="649.9981143975829" as="sourcePoint" />
            <mxPoint x="507.1524417534027" y="678.1220929314876" as="targetPoint" />
          </mxGeometry>
        </mxCell>
        <mxCell id="18HeZGIxDqBUU-sSrPAE-3" value="sélectionner un contact" style="ellipse;whiteSpace=wrap;html=1;fillColor=#FAE5C7;strokeColor=#67AB9F;fontColor=#143642;strokeWidth=3;" vertex="1" parent="5vwQFB1EGFWnGSSuwMpy-1">
          <mxGeometry x="501.77" y="884.0599999999998" width="85" height="60" as="geometry" />
        </mxCell>
        <mxCell id="18HeZGIxDqBUU-sSrPAE-4" value="&amp;lt;&amp;lt;inclus&amp;gt;&amp;gt;" style="html=1;verticalAlign=bottom;endArrow=open;dashed=1;endSize=8;fontColor=#143642;strokeColor=#A8201A;fillColor=#FAE5C7;entryX=0;entryY=0;entryDx=0;entryDy=0;exitX=1;exitY=1;exitDx=0;exitDy=0;" edge="1" parent="5vwQFB1EGFWnGSSuwMpy-1" target="18HeZGIxDqBUU-sSrPAE-3" source="Hb3121Sesb2D6RizW1UG-19">
          <mxGeometry relative="1" as="geometry">
            <mxPoint x="482.23199999999997" y="880" as="sourcePoint" />
            <mxPoint x="519.4224417534026" y="872.1820929314875" as="targetPoint" />
          </mxGeometry>
        </mxCell>
      </root>
    </mxGraphModel>
  </diagram>
</mxfile>
